# xmcd
#
# Track frame offsets: 
#        150
#        22481
#        48123
#        71204
#        91266
#        116681
#        143514
#        175073
#        194206
#        217286
#        244762
#        278647
#        305092
#
# Disc length: 4324 seconds
#
# Revision: 2
# Processed by: cddbd v1.5.2PL0 Copyright (c) Steve Scherf et al.
# Submitted via: ExactAudioCopy v1.0b3
#
DISCID=cc10e20d
DTITLE=Various Artist - Blues Paradise  vol.1
DYEAR=2000
DGENRE=Blues
TTITLE0=Snowy White - Bird Of Paradise
TTITLE1=Stan Webb - I`d Rather Go Blind
TTITLE2=Rory Gallagher - Easy Come, Easy Go
TTITLE3=Roy Roberts - She`s So Fine
TTITLE4=John Lee Hooker - The Healer
TTITLE5=Blues Company - Silent Night
TTITLE6=Livin` Blues - Skid Row
TTITLE7=Boby Mack and Night Train - Only Getting Second Best
TTITLE8=Jonny Lang - Darker Side
TTITLE9=James Solberg - L.A. Blues
TTITLE10=Blues Mobile Band - She`s Gone
TTITLE11=Tosho - Oh Lord
TTITLE12=Stevie Ray Vaughan - Herve My Gire Alone
EXTD=YEAR: 2000 ID3G: 0
EXTT0=
EXTT1=
EXTT2=
EXTT3=
EXTT4=
EXTT5=
EXTT6=
EXTT7=
EXTT8=
EXTT9=
EXTT10=
EXTT11=
EXTT12=
PLAYORDER=
